<svg width="24" height="24" viewBox="0 0 24 24" fill="none" xmlns="http://www.w3.org/2000/svg">
<path d="M9.6713 4.13591C9.7264 3.55625 9.99564 3.01795 10.4264 2.62619C10.8572 2.23442 11.4185 2.01733 12.0008 2.01733C12.5831 2.01733 13.1444 2.23442 13.5752 2.62619C14.006 3.01795 14.2752 3.55625 14.3303 4.13591C14.3634 4.51036 14.4863 4.87133 14.6884 5.18825C14.8906 5.50517 15.1662 5.76872 15.4918 5.95658C15.8174 6.14445 16.1834 6.25111 16.559 6.26753C16.9346 6.28395 17.3085 6.20964 17.6493 6.05091C18.1784 5.81069 18.778 5.77593 19.3313 5.95339C19.8846 6.13086 20.3521 6.50786 20.6428 7.01101C20.9335 7.51417 21.0266 8.10748 20.9039 8.67548C20.7813 9.24348 20.4517 9.74552 19.9793 10.0839C19.6717 10.2998 19.4206 10.5865 19.2472 10.9199C19.0739 11.2533 18.9833 11.6236 18.9833 11.9994C18.9833 12.3752 19.0739 12.7455 19.2472 13.0789C19.4206 13.4123 19.6717 13.6991 19.9793 13.9149C20.4517 14.2533 20.7813 14.7553 20.9039 15.3233C21.0266 15.8913 20.9335 16.4846 20.6428 16.9878C20.3521 17.491 19.8846 17.868 19.3313 18.0454C18.778 18.2229 18.1784 18.1881 17.6493 17.9479C17.3085 17.7892 16.9346 17.7149 16.559 17.7313C16.1834 17.7477 15.8174 17.8544 15.4918 18.0422C15.1662 18.2301 14.8906 18.4936 14.6884 18.8106C14.4863 19.1275 14.3634 19.4885 14.3303 19.8629C14.2752 20.4426 14.006 20.9809 13.5752 21.3726C13.1444 21.7644 12.5831 21.9815 12.0008 21.9815C11.4185 21.9815 10.8572 21.7644 10.4264 21.3726C9.99564 20.9809 9.7264 20.4426 9.6713 19.8629C9.63825 19.4883 9.5154 19.1272 9.31317 18.8102C9.11094 18.4931 8.83528 18.2295 8.50954 18.0416C8.1838 17.8537 7.81757 17.7471 7.44188 17.7308C7.06619 17.7145 6.69211 17.789 6.3513 17.9479C5.82219 18.1881 5.22263 18.2229 4.6693 18.0454C4.11598 17.868 3.64848 17.491 3.35779 16.9878C3.0671 16.4846 2.97402 15.8913 3.09666 15.3233C3.21931 14.7553 3.54891 14.2533 4.0213 13.9149C4.32892 13.6991 4.58003 13.4123 4.75339 13.0789C4.92675 12.7455 5.01726 12.3752 5.01726 11.9994C5.01726 11.6236 4.92675 11.2533 4.75339 10.9199C4.58003 10.5865 4.32892 10.2998 4.0213 10.0839C3.54957 9.74535 3.22055 9.2435 3.09821 8.67589C2.97586 8.10828 3.06891 7.51545 3.35929 7.01262C3.64966 6.50979 4.11662 6.13288 4.66939 5.95515C5.22217 5.77741 5.82129 5.81154 6.3503 6.05091C6.69106 6.20964 7.06505 6.28395 7.44061 6.26753C7.81616 6.25111 8.18224 6.14445 8.50784 5.95658C8.83345 5.76872 9.109 5.50517 9.31117 5.18825C9.51334 4.87133 9.63619 4.51036 9.6693 4.13591" stroke="#595C61" stroke-width="2" stroke-linecap="round" stroke-linejoin="round"/>
<path d="M12 15C13.6569 15 15 13.6569 15 12C15 10.3431 13.6569 9 12 9C10.3431 9 9 10.3431 9 12C9 13.6569 10.3431 15 12 15Z" stroke="#595C61" stroke-width="2" stroke-linecap="round" stroke-linejoin="round"/>
</svg>
